<?xml version="1.0" encoding="UTF-8"?>
<svg id="_Слой_1" data-name="Слой 1" xmlns="http://www.w3.org/2000/svg" viewBox="0 0 705.27 937.1">
  <defs>
    <style>
      .cls-1 {
        fill: #e52421;
      }

      .cls-2 {
        fill: #fff;
      }
    </style>
  </defs>
  <circle class="cls-1" cx="202.32" cy="409.09" r="39.13"/>
  <circle class="cls-2" cx="186.74" cy="395.05" r="11.37"/>
  <circle class="cls-1" cx="154.37" cy="340.92" r="29.04"/>
  <circle class="cls-2" cx="147.87" cy="326.78" r="8.44"/>
  <circle class="cls-1" cx="113.62" cy="417.67" r="31.76"/>
  <circle class="cls-2" cx="103.65" cy="403.87" r="9.23"/>
  <circle class="cls-1" cx="236.44" cy="325.68" r="35.44"/>
  <circle class="cls-2" cx="228.73" cy="343.04" r="10.3"/>
  <circle class="cls-1" cx="288.53" cy="392.45" r="31.32"/>
  <circle class="cls-2" cx="292.48" cy="408.76" r="9.1"/>
  <circle class="cls-1" cx="172.75" cy="271.76" r="33"/>
  <circle class="cls-2" cx="182.99" cy="286.19" r="9.59"/>
  <circle class="cls-1" cx="232.68" cy="560.05" r="39.13"/>
  <circle class="cls-2" cx="213.19" cy="567.81" r="11.37"/>
  <circle class="cls-1" cx="150.33" cy="572.85" r="29.04"/>
  <circle class="cls-2" cx="134.77" cy="572.42" r="8.44"/>
  <circle class="cls-1" cx="201.09" cy="643.38" r="31.76"/>
  <circle class="cls-2" cx="184.3" cy="646.21" r="9.23"/>
  <circle class="cls-1" cx="173.01" cy="492.52" r="35.44"/>
  <circle class="cls-2" cx="185.16" cy="507.13" r="10.3"/>
  <circle class="cls-1" cx="255.94" cy="475.39" r="31.32"/>
  <circle class="cls-2" cx="272.32" cy="479.08" r="9.1"/>
  <circle class="cls-1" cx="96.46" cy="525.74" r="33"/>
  <circle class="cls-2" cx="113.94" cy="522.96" r="9.59"/>
  <circle class="cls-1" cx="433.4" cy="473.37" r="39.13"/>
  <circle class="cls-2" cx="425.61" cy="492.84" r="11.37"/>
  <circle class="cls-1" cx="385.98" cy="541.9" r="29.04"/>
  <circle class="cls-2" cx="374.95" cy="552.89" r="8.44"/>
  <circle class="cls-1" cx="472.08" cy="553.65" r="31.76"/>
  <circle class="cls-2" cx="462.57" cy="567.78" r="9.23"/>
  <circle class="cls-1" cx="343.34" cy="470.13" r="35.44"/>
  <circle class="cls-2" cx="362.3" cy="471.39" r="10.3"/>
  <circle class="cls-1" cx="388.03" cy="398.21" r="31.32"/>
  <circle class="cls-2" cx="401.98" cy="388.86" r="9.1"/>
  <circle class="cls-1" cx="314.73" cy="548.52" r="33"/>
  <circle class="cls-2" cx="324.74" cy="533.93" r="9.59"/>
  <circle class="cls-1" cx="564.61" cy="392.76" r="39.13"/>
  <circle class="cls-2" cx="578.62" cy="408.37" r="11.37"/>
  <circle class="cls-1" cx="605.05" cy="465.63" r="29.04"/>
  <circle class="cls-2" cx="610.02" cy="480.38" r="8.44"/>
  <circle class="cls-1" cx="653.72" cy="393.64" r="31.76"/>
  <circle class="cls-2" cx="662.17" cy="408.42" r="9.23"/>
  <circle class="cls-1" cx="521.83" cy="472.07" r="35.44"/>
  <circle class="cls-2" cx="531.34" cy="455.63" r="10.3"/>
  <circle class="cls-1" cx="477.12" cy="400.15" r="31.32"/>
  <circle class="cls-2" cx="474.93" cy="383.51" r="9.1"/>
  <circle class="cls-1" cx="579.43" cy="532.44" r="33"/>
  <circle class="cls-2" cx="570.79" cy="517.01" r="9.59"/>
  <circle class="cls-1" cx="283.37" cy="259.75" r="39.13"/>
  <circle class="cls-2" cx="297.38" cy="275.37" r="11.37"/>
  <circle class="cls-1" cx="347.3" cy="346.5" r="29.04"/>
  <circle class="cls-2" cx="352.27" cy="361.25" r="8.44"/>
  <circle class="cls-1" cx="383.01" cy="266.37" r="31.76"/>
  <circle class="cls-2" cx="391.46" cy="281.15" r="9.23"/>
  <circle class="cls-1" cx="508.44" cy="318.33" r="39.13"/>
  <circle class="cls-2" cx="521.71" cy="334.58" r="11.37"/>
  <circle class="cls-1" cx="424.91" cy="341.14" r="31.32"/>
  <circle class="cls-2" cx="423.48" cy="324.41" r="9.1"/>
  <circle class="cls-1" cx="603.74" cy="318.33" r="35.44"/>
  <circle class="cls-2" cx="593.95" cy="302.05" r="10.3"/>
  <circle class="cls-1" cx="81.85" cy="345.95" r="31.32"/>
  <circle class="cls-2" cx="66.22" cy="339.82" r="9.1"/>
  <circle class="cls-1" cx="408.97" cy="624.55" r="39.13"/>
  <circle class="cls-2" cx="416.72" cy="644.04" r="11.37"/>
  <circle class="cls-1" cx="421.77" cy="706.9" r="29.04"/>
  <circle class="cls-2" cx="421.33" cy="722.46" r="8.44"/>
  <circle class="cls-1" cx="492.3" cy="656.14" r="31.76"/>
  <circle class="cls-2" cx="495.12" cy="672.93" r="9.23"/>
  <circle class="cls-1" cx="341.43" cy="684.22" r="35.44"/>
  <circle class="cls-2" cx="356.04" cy="672.07" r="10.3"/>
  <circle class="cls-1" cx="374.66" cy="760.77" r="33"/>
  <circle class="cls-2" cx="371.87" cy="743.29" r="9.59"/>
  <circle class="cls-1" cx="295.6" cy="623.33" r="33"/>
  <circle class="cls-2" cx="280.39" cy="614.3" r="9.59"/>
  <circle class="cls-1" cx="264.4" cy="721.38" r="39.13"/>
  <circle class="cls-2" cx="278.17" cy="705.56" r="11.37"/>
  <circle class="cls-1" cx="282.52" cy="807.29" r="31.32"/>
  <circle class="cls-2" cx="266.27" cy="811.52" r="9.1"/>
  <circle class="cls-1" cx="173.01" cy="705.71" r="29.04"/>
  <circle class="cls-2" cx="177.78" cy="690.89" r="8.44"/>
  <path class="cls-1" d="M192.56,884.27c-17.81-8.11-25.68-29.13-17.56-46.94,8.11-17.81,29.13-25.68,46.94-17.56,17.81,8.11,25.68,29.13,17.56,46.94-8.11,17.81-29.13,25.68-46.94,17.56"/>
  <circle class="cls-2" cx="189.82" cy="859.59" r="10.3"/>
  <circle class="cls-1" cx="196.76" cy="769.23" r="33"/>
  <circle class="cls-2" cx="194.55" cy="786.78" r="9.59"/>
  <circle class="cls-1" cx="78.16" cy="744.84" r="39.13"/>
  <circle class="cls-2" cx="62.34" cy="731.07" r="11.37"/>
  <circle class="cls-1" cx="29.05" cy="677.51" r="29.04"/>
  <circle class="cls-2" cx="22.3" cy="663.48" r="8.44"/>
  <circle class="cls-1" cx="46.24" cy="465.63" r="31.76"/>
  <circle class="cls-2" cx="36.03" cy="452" r="9.23"/>
  <circle class="cls-1" cx="110.84" cy="660.86" r="35.44"/>
  <circle class="cls-2" cx="103.43" cy="678.35" r="10.3"/>
  <circle class="cls-1" cx="46.24" cy="608.04" r="33"/>
  <circle class="cls-2" cx="56.72" cy="622.3" r="9.59"/>
  <circle class="cls-1" cx="110.84" cy="820.63" r="33"/>
  <circle class="cls-2" cx="123.27" cy="821.69" r="9.59"/>
  <circle class="cls-1" cx="550.21" cy="600.74" r="35.44"/>
  <circle class="cls-2" cx="531.3" cy="602.61" r="10.3"/>
  <circle class="cls-1" cx="63.46" cy="139.53" r="31.32"/>
  <circle class="cls-2" cx="51.23" cy="151.03" r="9.1"/>
  <circle class="cls-1" cx="73.71" cy="266.87" r="39.13"/>
  <circle class="cls-2" cx="57.34" cy="253.76" r="11.37"/>
  <circle class="cls-1" cx="213.19" cy="212" r="31.32"/>
  <circle class="cls-2" cx="213.19" cy="226.76" r="9.1"/>
  <circle class="cls-1" cx="439.92" cy="117.86" r="39.13"/>
  <circle class="cls-2" cx="419.14" cy="120.7" r="11.37"/>
  <circle class="cls-1" cx="356.91" cy="110.49" r="29.04"/>
  <circle class="cls-2" cx="341.91" cy="106.32" r="8.44"/>
  <circle class="cls-1" cx="389.23" cy="191.15" r="31.76"/>
  <circle class="cls-2" cx="372.25" cy="189.86" r="9.23"/>
  <circle class="cls-1" cx="398.24" cy="37.96" r="35.44"/>
  <circle class="cls-2" cx="406.52" cy="55.06" r="10.3"/>
  <circle class="cls-1" cx="562.04" cy="768.37" r="31.32"/>
  <circle class="cls-2" cx="577.05" cy="775.88" r="9.1"/>
  <circle class="cls-1" cx="315.95" cy="51.81" r="33"/>
  <circle class="cls-2" cx="333.58" cy="53.3" r="9.59"/>
  <circle class="cls-1" cx="574.83" cy="192.11" r="39.13"/>
  <circle class="cls-2" cx="568.17" cy="212" r="11.37"/>
  <circle class="cls-1" cx="538.56" cy="252.33" r="29.04"/>
  <circle class="cls-2" cx="528.19" cy="263.94" r="8.44"/>
  <circle class="cls-1" cx="623.42" cy="249.64" r="31.76"/>
  <circle class="cls-2" cx="614.74" cy="264.29" r="9.23"/>
  <circle class="cls-1" cx="484.73" cy="194.1" r="35.44"/>
  <circle class="cls-2" cx="503.73" cy="194.25" r="10.3"/>
  <circle class="cls-1" cx="525.18" cy="119.7" r="31.32"/>
  <circle class="cls-2" cx="538.56" cy="109.57" r="9.1"/>
  <circle class="cls-1" cx="129.47" cy="194.07" r="33"/>
  <circle class="cls-2" cx="138.62" cy="178.92" r="9.59"/>
  <circle class="cls-1" cx="630.25" cy="636.25" r="39.13"/>
  <circle class="cls-2" cx="623.59" cy="656.14" r="11.37"/>
  <circle class="cls-1" cx="586.87" cy="707.41" r="29.04"/>
  <circle class="cls-2" cx="576.5" cy="719.02" r="8.44"/>
  <circle class="cls-1" cx="673.51" cy="714.16" r="31.76"/>
  <circle class="cls-2" cx="664.83" cy="728.81" r="9.23"/>
  <circle class="cls-1" cx="611.79" cy="106.51" r="39.13"/>
  <circle class="cls-2" cx="604.22" cy="126.07" r="11.37"/>
  <circle class="cls-1" cx="629.87" cy="772.24" r="31.32"/>
  <circle class="cls-2" cx="643.71" cy="762.73" r="9.1"/>
  <circle class="cls-1" cx="658.87" cy="189.36" r="35.44"/>
  <circle class="cls-2" cx="668.19" cy="172.81" r="10.3"/>
  <circle class="cls-1" cx="296.41" cy="171.3" r="39.13"/>
  <circle class="cls-2" cx="283.29" cy="187.67" r="11.37"/>
  <circle class="cls-1" cx="456.23" cy="258.13" r="31.76"/>
  <circle class="cls-2" cx="443.03" cy="268.88" r="9.23"/>
  <circle class="cls-1" cx="211.16" cy="142.06" r="35.44"/>
  <circle class="cls-2" cx="228.94" cy="148.76" r="10.3"/>
  <circle class="cls-1" cx="241.46" cy="72.14" r="33"/>
  <circle class="cls-2" cx="241.8" cy="54.45" r="9.59"/>
  <circle class="cls-1" cx="140.79" cy="93.45" r="39.13"/>
  <circle class="cls-2" cx="161.36" cy="97.61" r="11.37"/>
  <circle class="cls-1" cx="487.99" cy="55.06" r="31.76"/>
  <circle class="cls-2" cx="496.44" cy="69.84" r="9.23"/>
  <circle class="cls-1" cx="648.81" cy="552.89" r="31.76"/>
  <circle class="cls-2" cx="657.26" cy="567.67" r="9.23"/>
  <circle class="cls-1" cx="493.86" cy="734.76" r="31.76"/>
  <circle class="cls-2" cx="495.99" cy="717.87" r="9.23"/>
  <circle class="cls-1" cx="81.85" cy="896.44" r="31.76"/>
  <circle class="cls-2" cx="83.98" cy="879.54" r="9.23"/>
  <circle class="cls-1" cx="381.19" cy="857.76" r="31.76"/>
  <circle class="cls-2" cx="384.02" cy="874.55" r="9.23"/>
  <circle class="cls-1" cx="439.1" cy="802.37" r="35.44"/>
  <circle class="cls-2" cx="420.19" cy="804.23" r="10.3"/>
  <circle class="cls-1" cx="519.15" cy="837.87" r="39.13"/>
  <circle class="cls-2" cx="512.49" cy="857.76" r="11.37"/>
  <circle class="cls-1" cx="465.4" cy="894.36" r="29.04"/>
  <circle class="cls-2" cx="455.74" cy="898.79" r="8.44"/>
  <circle class="cls-1" cx="635.31" cy="847.7" r="31.76"/>
  <circle class="cls-2" cx="626.64" cy="862.35" r="9.23"/>
  <circle class="cls-1" cx="591.68" cy="905.78" r="31.32"/>
  <circle class="cls-2" cx="605.52" cy="896.27" r="9.1"/>
  <circle class="cls-1" cx="305.99" cy="877" r="31.76"/>
  <circle class="cls-2" cx="309.41" cy="867.77" r="9.23"/>
  <circle class="cls-1" cx="68.71" cy="60.61" r="39.13"/>
  <circle class="cls-2" cx="61.14" cy="80.18" r="11.37"/>
  <circle class="cls-1" cx="558.28" cy="39.14" r="39.13"/>
  <circle class="cls-2" cx="550.71" cy="58.7" r="11.37"/>
</svg>